<?xml version="1.0" standalone="no"?><!DOCTYPE svg PUBLIC "-//W3C//DTD SVG 1.1//EN" "http://www.w3.org/Graphics/SVG/1.1/DTD/svg11.dtd"><svg t="1589078278783" class="icon" viewBox="0 0 1024 1024" version="1.1" xmlns="http://www.w3.org/2000/svg" p-id="4742" xmlns:xlink="http://www.w3.org/1999/xlink" width="128" height="128"><defs><style type="text/css"></style></defs><path d="M990.823662 171.110969H32.643815C17.718781 171.110969 0 188.872927 0 203.754784l0.895534 638.34626C0.895534 856.962112 18.593526 874.744859 33.51856 874.744859H447.767021l-18.977326 87.826303c-6.43825 29.189612-33.32666 48.443594-62.409127 46.652526-0.511734 0.043178-0.917922 0.063967-1.471235 0.086355a7.365767 7.365767 0 0 0-7.378561 7.376962c0 3.241513 2.218046 5.948905 5.181304 6.887616 0.319834 0.148723 0.598089 0.276656 0.895534 0.319834v0.105545h296.316223v-0.127933c0.319834-0.041578 0.617279-0.169512 0.895534-0.319834 3.006436-0.937112 5.202093-3.646103 5.202094-6.886017a7.365767 7.365767 0 0 0-7.376962-7.378561 32.144875 32.144875 0 0 1-1.471234-0.084756c-29.063278 1.811857-55.993266-17.442125-62.431517-46.652526L575.700456 874.744859h415.123206C1005.748696 874.744859 1023.467477 856.962112 1023.467477 842.101044V203.754784c0-14.881857-17.718781-32.643815-32.643815-32.643815zM531.904044 828.432956c-0.639667 1.300124-1.300124 2.494702-1.982969 3.561347-0.724423 1.108223-1.407268 2.067724-2.046935 2.899291-0.703634 0.831567-1.256946 1.407268-1.619957 1.811858-0.746811 0.618878-1.492024 1.173789-2.282012 1.557589-0.745212 0.425379-1.535201 0.553312-2.366769 0.553312-0.532523 0-1.17219-0.105545-1.919001-0.340622-0.767601-0.235078-1.535201-0.468556-2.323591-0.724423-0.810778-0.255867-1.599168-0.490945-2.387558-0.746812-0.831567-0.212689-1.535201-0.319834-2.197257-0.319833-0.703634 0-1.492024 0.107144-2.302802 0.363011-0.852357 0.255867-1.683924 0.489345-2.515491 0.7676-0.852357 0.276656-1.642345 0.511734-2.323591 0.745212-0.703634 0.214289-1.322512 0.319834-1.770279 0.319834-0.682845 0-1.300124-0.105545-1.875824-0.319834-0.618878-0.233479-1.258545-0.617279-1.919001-1.1514-0.662056-0.532523-1.322512-1.256946-2.046935-2.131691-0.767601-0.895534-1.578379-1.982968-2.473913-3.30548-0.852357-1.236157-1.55599-2.579458-2.282013-4.029904-0.660456-1.471234-1.300124-3.006436-1.768679-4.605603-0.470155-1.55599-0.874745-3.111981-1.109823-4.754326-0.276656-1.599168-0.447767-3.134369-0.447767-4.669571 0-2.323591 0.342222-4.498459 1.023468-6.503816 0.682845-1.96058 1.663135-3.71007 2.857713-5.138126a13.07 13.07 0 0 1 4.221803-3.390236c1.599168-0.78839 3.347058-1.194578 5.245271-1.194579 1.386479 0 3.049613 0.406189 4.925437 1.194579 1.855035 0.810778 3.155158 1.215368 3.90197 1.215367 0.255867 0 0.724423-0.107144 1.36409-0.363011 0.682845-0.233479 1.685523-0.5757 2.942469-1.065046 1.258545-0.426978 2.218046-0.726022 2.942469-0.895534a10.274654 10.274654 0 0 1 2.282013-0.278255c2.110902 0 4.050692 0.490945 5.969694 1.514412 1.877423 0.98029 3.390236 2.302802 4.47767 3.986726-2.024547 1.215368-3.495781 2.665813-4.434493 4.372125-0.895534 1.663135-1.343301 3.71007-1.343301 5.969694 0 2.387558 0.618878 4.562426 1.898212 6.567782 1.256946 1.982968 3.027225 3.495781 5.28685 4.49846-0.425379 1.386479-0.98029 2.750569-1.599168 4.029903z m-20.27745-32.451915c0-1.343301 0.299044-2.665813 0.895534-4.009114 0.598089-1.322512 1.343301-2.579458 2.366769-3.68928a12.459117 12.459117 0 0 1 3.412624-2.664214 10.004395 10.004395 0 0 1 4.071482-1.151401c0.063967 0.212689 0.086355 0.3838 0.086355 0.532523v0.5757c0 1.36409-0.299044 2.793746-0.874745 4.157837-0.5757 1.386479-1.300124 2.622635-2.259624 3.71007-0.938712 1.130612-2.005357 2.003757-3.220725 2.622635-1.192979 0.660456-2.408347 0.98029-3.646102 0.98029-0.511734 0-0.767601-0.063967-0.809179-0.297445-0.022388-0.127933-0.022388-0.3838-0.022389-0.767601zM980.822466 746.811425H42.645011V213.75598h938.177455V746.811425z" fill="#333333" p-id="4743"></path></svg>