<?xml version="1.0" standalone="no"?><!DOCTYPE svg PUBLIC "-//W3C//DTD SVG 1.1//EN" "http://www.w3.org/Graphics/SVG/1.1/DTD/svg11.dtd"><svg t="1589078246255" class="icon" viewBox="0 0 1114 1024" version="1.1" xmlns="http://www.w3.org/2000/svg" p-id="4584" xmlns:xlink="http://www.w3.org/1999/xlink" width="139.25" height="128"><defs><style type="text/css"></style></defs><path d="M1059.297882 0H53.850353C24.124235 0 0 24.094118 0 53.850353v718.185412c0 29.726118 24.094118 53.850353 53.850353 53.850353h341.142588v89.750588l-71.830588 71.830588v17.950118h466.823529v-17.950118l-71.830588-71.80047v-89.780706h341.142588c29.726118 0 53.850353-24.094118 53.850353-53.850353V53.850353C1113.148235 24.124235 1089.054118 0 1059.297882 0z m-17.980235 682.255059H71.830588V71.830588h969.487059v610.424471z" p-id="4585"></path><path d="M658.853647 421.285647c8.794353 12.348235 18.883765 20.359529 30.238118 24.003765a201.938824 201.938824 0 0 1-23.491765 47.344941c-16.504471 24.756706-32.798118 37.104941-48.880941 37.104941-6.023529 0-14.908235-2.017882-26.684235-6.053647-10.932706-4.065882-20.48-6.083765-28.611765-6.083765-8.161882 0-17.167059 2.108235-27.045647 6.384942-10.300235 4.065882-18.763294 6.083765-25.419294 6.083764-19.275294 0-38.249412-16.323765-56.922353-48.941176-18.672941-32.225882-27.979294-63.909647-27.979294-95.051294 0-28.792471 7.077647-52.344471 21.232941-70.716236 14.576941-18.341647 32.587294-27.497412 54.031059-27.497411 4.728471 0 9.968941 0.602353 15.751529 1.746823 5.812706 1.204706 11.806118 3.373176 18.010353 6.565647 6.656 3.614118 12.137412 6.144 16.414118 7.529412 4.276706 1.385412 7.619765 2.078118 9.968941 2.078118 2.800941 0 7.077647-0.632471 12.860235-1.92753 5.812706-1.264941 11.595294-3.614118 17.377882-7.047529 6.204235-3.403294 11.565176-5.963294 16.082824-7.68 4.517647-1.686588 9.125647-2.56 13.854118-2.56 14.998588 0 28.491294 4.065882 40.508235 12.167529 6.415059 4.276706 12.950588 10.541176 19.606588 18.883765-9.848471 8.523294-17.046588 15.992471-21.534118 22.377412a66.650353 66.650353 0 0 0-12.559058 39.062588c0 15.570824 4.397176 29.635765 13.191529 42.224941zM594.221176 271.872c-7.529412 7.017412-14.396235 11.625412-20.60047 13.733647-2.138353 0.662588-4.879059 1.234824-8.192 1.776941-3.312941 0.542118-7.137882 1.024-11.444706 1.445647 0.240941-18.793412 5.150118-34.996706 14.817882-48.64 9.637647-13.643294 25.509647-23.04 47.585883-28.16l0.963764 4.48753v3.523764c0 7.68-1.807059 16.293647-5.451294 25.901177a78.757647 78.757647 0 0 1-17.679059 25.901176z" p-id="4586"></path></svg>