<?xml version="1.0" standalone="no"?><!DOCTYPE svg PUBLIC "-//W3C//DTD SVG 1.1//EN" "http://www.w3.org/Graphics/SVG/1.1/DTD/svg11.dtd"><svg t="1589078617930" class="icon" viewBox="0 0 1024 1024" version="1.1" xmlns="http://www.w3.org/2000/svg" p-id="9543" xmlns:xlink="http://www.w3.org/1999/xlink" width="128" height="128"><defs><style type="text/css"></style></defs><path d="M551.651556 436.489481v-6.485333l-20.15763 1.384296c-5.707852 0.360296-9.993481 1.573926-12.875852 3.621926a9.993481 9.993481 0 0 0-4.323555 8.590223c0 3.565037 1.422222 6.409481 4.285629 8.51437 2.844444 2.123852 6.674963 3.166815 11.45363 3.166815 3.053037 0 5.916444-0.474074 8.552296-1.403259s4.949333-2.23763 6.883556-3.906371a17.521778 17.521778 0 0 0 6.181926-13.482667zM512 175.407407C292.427852 175.407407 118.518519 349.316741 118.518519 568.888889 118.518519 788.48 292.427852 962.37037 512 962.37037S905.481481 788.48 905.481481 568.888889c0-219.572148-173.89037-393.481481-393.481481-393.481482z m76.382815 233.225482c1.85837-5.214815 4.475259-9.690074 7.869629-13.406815 3.39437-3.716741 7.471407-6.580148 12.250075-8.590222 4.778667-2.010074 10.107259-3.015111 15.966814-3.015111 5.290667 0 10.069333 0.796444 14.317037 2.37037 4.266667 1.573926 7.907556 3.697778 10.960593 6.371556 3.053037 2.673778 5.480296 5.783704 7.262815 9.34874 1.782519 3.565037 2.844444 7.338667 3.204741 11.301926h-15.796149c-0.398222-2.180741-1.118815-4.228741-2.142814-6.106074s-2.37037-3.508148-4.039112-4.892444a18.962963 18.962963 0 0 0-5.916444-3.242667 23.077926 23.077926 0 0 0-7.68-1.175704c-3.356444 0-6.409481 0.682667-9.121185 2.029037a20.138667 20.138667 0 0 0-6.997334 5.726815 27.117037 27.117037 0 0 0-4.494222 9.007408 40.315259 40.315259 0 0 0-1.611852 11.794963c0 4.475259 0.530963 8.495407 1.611852 12.022518 1.061926 3.546074 2.578963 6.523259 4.551111 8.969482 1.953185 2.446222 4.323556 4.323556 7.073186 5.613037 2.74963 1.289481 5.783704 1.953185 9.083259 1.953185 5.404444 0 9.803852-1.270519 13.217185-3.811556 3.413333-2.541037 5.613037-6.257778 6.637037-11.150222h15.815111c-0.455111 4.323556-1.649778 8.267852-3.584 11.832889s-4.437333 6.599111-7.509333 9.121185c-3.090963 2.522074-6.712889 4.475259-10.884741 5.840593s-8.760889 2.066963-13.748148 2.066963c-5.916444 0-11.245037-0.986074-16.042667-2.93926a34.455704 34.455704 0 0 1-12.306963-8.438518 37.793185 37.793185 0 0 1-7.907555-13.368889 52.868741 52.868741 0 0 1-2.787556-17.73037 51.143111 51.143111 0 0 1 2.74963-17.502815z m-224.768-23.931259h15.815111v14.051555h0.303407a23.381333 23.381333 0 0 1 9.178074-10.960592 24.651852 24.651852 0 0 1 6.712889-2.977186 28.634074 28.634074 0 0 1 7.717926-1.024c5.802667 0 10.714074 1.384296 14.696297 4.152889 4.001185 2.768593 6.84563 6.750815 8.51437 11.946667h0.398222c1.061926-2.503111 2.465185-4.740741 4.190815-6.712889a26.851556 26.851556 0 0 1 13.330963-8.286815 31.478519 31.478519 0 0 1 8.438518-1.099852c4.077037 0 7.774815 0.644741 11.112297 1.953186 3.337481 1.308444 6.181926 3.128889 8.552296 5.499259 2.37037 2.37037 4.190815 5.252741 5.461333 8.628148 1.270519 3.375407 1.915259 7.130074 1.91526 11.264v56.528593h-16.497778V415.099259c0-5.44237-1.403259-9.671111-4.209778-12.648296-2.787556-2.977185-6.788741-4.475259-11.984593-4.475259a17.901037 17.901037 0 0 0-6.997333 1.34637 15.966815 15.966815 0 0 0-5.461333 3.754667 16.858074 16.858074 0 0 0-3.584 5.76474 20.043852 20.043852 0 0 0-1.308445 7.338667v51.484445h-16.270222v-53.930667c0-2.389333-0.379259-4.551111-1.118815-6.485333a13.767111 13.767111 0 0 0-8.173037-8.135112 18.697481 18.697481 0 0 0-6.618074-1.118814 17.521778 17.521778 0 0 0-7.073185 1.422222 16.687407 16.687407 0 0 0-9.197037 9.879704c-0.83437 2.275556-2.199704 4.778667-2.199704 7.471407v50.87763h-15.644444v-82.944z m35.896889 397.065481c-72.533333 0-118.025481-50.403556-118.025482-130.844444 0-80.440889 45.492148-131.015111 118.025482-131.015111s117.854815 50.574222 117.854815 131.015111c0 80.421926-45.321481 130.844444-117.854815 130.844444z m134.295703-314.311111a33.014519 33.014519 0 0 1-8.210963 1.024c-4.133926 0-7.907556-0.587852-11.339851-1.763556a26.149926 26.149926 0 0 1-8.855704-4.968296 22.281481 22.281481 0 0 1-5.764741-7.755852 24.101926 24.101926 0 0 1-2.066963-10.126222c0-7.281778 2.711704-12.970667 8.135111-17.066667 5.423407-4.096 13.274074-6.485333 23.570963-7.149037l22.376297-1.289481v-6.409482c0-4.778667-1.517037-8.438519-4.551112-10.922666-3.034074-2.484148-7.319704-3.735704-12.875851-3.735704a22.945185 22.945185 0 0 0-6.276741 0.83437 17.256296 17.256296 0 0 0-5.12 2.408297 13.767111 13.767111 0 0 0-5.650963 8.609185h-15.511704c0.094815-3.659852 1.005037-7.054222 2.711704-10.164148 1.706667-3.109926 4.020148-5.802667 6.959407-8.097185s6.371556-4.077037 10.353778-5.347556 8.305778-1.915259 12.98963-1.915259c5.044148 0 9.614222 0.625778 13.710222 1.915259s7.604148 3.090963 10.505481 5.461333c2.901333 2.37037 5.138963 5.214815 6.712889 8.552297 1.573926 3.337481 2.37037 7.073185 2.370371 11.188148v56.907852h-15.796148v-13.824h-0.398223c-1.175704 2.23763-2.654815 4.266667-4.456296 6.068148a28.634074 28.634074 0 0 1-13.520593 7.566222z m104.353186 314.311111c-55.314963 0-92.918519-28.975407-95.535408-74.467555h36.010667c2.806519 25.998222 27.932444 43.216593 62.350222 43.216592 33.014519 0 56.737185-17.21837 56.737185-40.751407 0-20.366222-14.411852-32.673185-47.767703-41.092741l-32.502519-8.078222c-46.724741-11.58637-67.963259-32.843852-67.963259-67.792593 0-43.026963 37.584593-72.89363 91.154963-72.893629 52.337778 0 88.860444 30.037333 90.263703 73.234963h-35.65037c-2.465185-25.998222-23.703704-41.984-55.333926-41.984-31.440593 0-53.210074 16.156444-53.210074 39.518814 0 18.432 13.691259 29.335704 47.066074 37.75526l27.401482 6.845629c52.167111 12.648296 73.595259 33.204148 73.595259 70.087111-0.018963 47.066074-37.243259 76.401778-96.616296 76.401778zM399.511704 552.201481c-49.701926 0-80.782222 38.115556-80.782223 98.702223 0 60.416 31.080296 98.531556 80.782223 98.531555 49.531259 0 80.782222-38.115556 80.782222-98.531555 0.018963-60.586667-31.250963-98.702222-80.782222-98.702223z" fill="#333333" p-id="9544"></path></svg>