<?xml version="1.0" standalone="no"?><!DOCTYPE svg PUBLIC "-//W3C//DTD SVG 1.1//EN" "http://www.w3.org/Graphics/SVG/1.1/DTD/svg11.dtd"><svg t="1589078317085" class="icon" viewBox="0 0 1024 1024" version="1.1" xmlns="http://www.w3.org/2000/svg" p-id="4968" xmlns:xlink="http://www.w3.org/1999/xlink" width="128" height="128"><defs><style type="text/css"></style></defs><path d="M699.6 224H324.624c-44.5792 0-75.024 30.8096-75.024 75v650C249.6 993.1904 280.0448 1024 324.624 1024h374.976c44.5296 0 75-30.8096 75-75v-650c0-44.1904-30.4704-75-75-75z m-186.4256 102.0752a18.3472 18.3472 0 0 1 3.296-5.0048 17.5744 17.5744 0 0 1 4.8096-3.664 13.5776 13.5776 0 0 1 5.8096-1.5616c0 0.1952 0.0496 0.488 0.0496 0.7328v0.7328c0 1.952-0.3648 3.856-1.1968 5.7616a18.4064 18.4064 0 0 1-3.2224 5.104c-1.344 1.488-2.808 2.6832-4.5168 3.5888-1.6864 0.88-3.3712 1.344-5.152 1.344-0.7088 0-1.0512-0.1232-1.1232-0.392v-1.1472c0.0016-1.832 0.416-3.664 1.248-5.4944z m-30.3712 21.264c0.928-2.7088 2.2944-5.1024 3.9792-7.0544 1.7584-2.0272 3.7104-3.5648 5.984-4.6624a17.2688 17.2688 0 0 1 7.3968-1.6128c1.9264 0 4.2464 0.5632 6.9088 1.6128 2.6848 1.0976 4.5408 1.6608 5.5424 1.6608 0.3424 0 0.9776-0.1712 1.928-0.4656 0.9776-0.3424 2.368-0.8544 4.1504-1.4656a36.9008 36.9008 0 0 1 4.1504-1.2448c1.0736-0.1952 2.1472-0.3424 3.2224-0.3424 2.9536 0 5.7376 0.6832 8.4224 2.0496 2.6848 1.368 4.76 3.176 6.2992 5.4208-2.8576 1.6848-4.9072 3.7104-6.2 6.0304-1.2448 2.32-1.952 5.0512-1.952 8.176 0 3.2736 0.928 6.3008 2.7104 9.0112 1.7824 2.7104 4.2464 4.76 7.4464 6.176a36.0608 36.0608 0 0 1-2.2944 5.472 55.5184 55.5184 0 0 1-2.808 4.8816 64.76 64.76 0 0 1-2.88 4.0048 26.912 26.912 0 0 1-2.2944 2.4432 12.2 12.2 0 0 1-3.1504 2.1472 7.6416 7.6416 0 0 1-3.344 0.7792c-0.7584 0-1.6608-0.1696-2.7104-0.44a45.2464 45.2464 0 0 1-3.248-1.024 76.0928 76.0928 0 0 0-3.4176-1c-1.1216-0.2672-2.1472-0.464-3.0528-0.464-1.024 0-2.1472 0.1936-3.296 0.512-1.1712 0.3168-2.3664 0.6592-3.5392 1.0496-1.1712 0.3424-2.2688 0.6816-3.2944 0.976-1 0.344-1.8304 0.4656-2.4896 0.4656-0.9024 0-1.7824-0.1216-2.5872-0.464-0.928-0.2928-1.808-0.7808-2.736-1.5136a22.0656 22.0656 0 0 1-2.9296-2.928 50.9568 50.9568 0 0 1-3.392-4.5408c-1.2032-1.664-2.2784-3.5184-3.2528-5.5456a48.9536 48.9536 0 0 1-2.5152-6.2752c-0.7072-2.1968-1.2704-4.3456-1.6352-6.5424a38.6736 38.6736 0 0 1-0.512-6.3472c0-3.2704 0.416-6.2496 1.3904-8.936z m116.7968 551.6608c0 23.8768-13.4272 37.5008-37.5008 37.5008h-100c-24.12 0-37.4992-13.624-37.4992-37.5008V524c0-23.8768 13.3792-37.5008 37.5008-37.5008h100c24.072 0 37.4992 13.624 37.4992 37.5008v375z m-37.5008-400h-100c-16.136 0-25 9.0832-25 25v375c0 15.968 8.864 25 25 25h100c16.112 0 25-9.032 25-25V524c0-15.9424-8.8864-25-25-25z" fill="#333333" p-id="4969"></path></svg>