<?xml version="1.0" standalone="no"?><!DOCTYPE svg PUBLIC "-//W3C//DTD SVG 1.1//EN" "http://www.w3.org/Graphics/SVG/1.1/DTD/svg11.dtd"><svg t="1589078044636" class="icon" viewBox="0 0 1024 1024" version="1.1" xmlns="http://www.w3.org/2000/svg" p-id="1589" width="128" height="128" xmlns:xlink="http://www.w3.org/1999/xlink"><defs><style type="text/css"></style></defs><path d="M874.3 710.4V305c0-16.5-9-25.9-25.9-25.9H175.6c-16.9 0-25.9 8.7-25.9 25.9v405.4H63.5c0.9 1.6 2.2 5.6 3.6 5.6 0 0 35.7 21.5 80 24.5s130.9 4.6 131 4.3c0-0.1 222.9 0.1 222.9 0.1l223.7-0.1s103.9-1.4 148.2-4.3c44.3-2.9 80-24.5 80-24.5 1.4 0 6.6-4 7.5-5.6h-86.1zM184.2 313.6h655.5v396.8H184.2V313.6z" p-id="1590" fill="#2c2c2c"></path></svg>