<?xml version="1.0" standalone="no"?><!DOCTYPE svg PUBLIC "-//W3C//DTD SVG 1.1//EN" "http://www.w3.org/Graphics/SVG/1.1/DTD/svg11.dtd"><svg t="1589078568921" class="icon" viewBox="0 0 1266 1024" version="1.1" xmlns="http://www.w3.org/2000/svg" p-id="9148" xmlns:xlink="http://www.w3.org/1999/xlink" width="158.25" height="128"><defs><style type="text/css"></style></defs><path d="M119.499861 627.88009V442.623692a410.978358 410.978358 0 0 1 150.481307-312.65969A555.136921 555.136921 0 0 1 632.274397 0.031614a558.930567 558.930567 0 0 1 363.873916 129.616251 413.191319 413.191319 0 0 1 150.797444 312.975827v186.20481a123.293507 123.293507 0 0 1 42.994659 7.90343 103.376864 103.376864 0 0 1 39.517149 22.761878 110.331882 110.331882 0 0 1 26.871662 33.82668v3.161372a94.84116 94.84116 0 0 1 8.219567 37.30419v185.256398a100.847766 100.847766 0 0 1-9.167978 40.149424 115.390077 115.390077 0 0 1-26.871662 34.142818 137.203544 137.203544 0 0 1-39.51715 22.761878h-3.793646a140.997191 140.997191 0 0 1-42.994659 6.955018h-101.163904a135.938995 135.938995 0 0 1-46.788305-8.219567 133.726035 133.726035 0 0 1-39.833287-22.761878 94.84116 94.84116 0 0 1-36.039641-74.608379v-184.307987a90.099102 90.099102 0 0 1 9.167979-40.149424 89.782964 89.782964 0 0 1 26.555524-33.82668 126.454879 126.454879 0 0 1 82.827946-31.61372v-164.391343a366.086876 366.086876 0 0 0-103.060726-141.945602A457.766664 457.766664 0 0 0 632.274397 213.424223a457.766664 457.766664 0 0 0-300.646476 107.486647 367.035288 367.035288 0 0 0-103.376864 141.945602v164.707481a126.454879 126.454879 0 0 1 43.310797 7.90343 101.796178 101.796178 0 0 1 39.833287 22.761878 111.280294 111.280294 0 0 1 27.187799 33.82668v3.161372a87.253867 87.253867 0 0 1 9.167978 37.936464v185.256399a99.583218 99.583218 0 0 1-9.484115 40.149424 116.654626 116.654626 0 0 1-27.1878 34.142817 133.726035 133.726035 0 0 1-39.833287 22.761879h-3.161372a144.158563 144.158563 0 0 1-43.626933 6.955018H123.293507a131.196937 131.196937 0 0 1-46.788305-8.219567 144.790837 144.790837 0 0 1-39.833287-22.761878A99.899355 99.899355 0 0 1 0 918.726313v-185.572536a90.415239 90.415239 0 0 1 9.484116-40.149424 108.435059 108.435059 0 0 1 26.555525-33.82668 130.8808 130.8808 0 0 1 83.46022-31.61372z m54.691735 94.84116H123.293507a11.697076 11.697076 0 0 0-9.484116 3.161372 19.916644 19.916644 0 0 0-3.161371 2.845235 8.851842 8.851842 0 0 0 0 4.742057v185.256399a10.432528 10.432528 0 0 0 3.793646 7.587293 14.226174 14.226174 0 0 0 3.793646 2.529097h111.912569a16.122997 16.122997 0 0 0 4.742058-2.529097 4.425921 4.425921 0 0 0 2.21296-3.47751 7.90343 7.90343 0 0 0 0-4.42592v-189.682319a6.322744 6.322744 0 0 0-2.21296-1.580686 15.174586 15.174586 0 0 0-9.484116-3.161372z m916.797876 0h-49.949677a9.484116 9.484116 0 0 0-8.535704 3.161372s-3.161372 2.21296-3.161372 2.845235a8.535704 8.535704 0 0 0-1.580686 4.742057v185.256399a11.064802 11.064802 0 0 0 4.742058 7.587293 6.322744 6.322744 0 0 0 3.477509 2.529097 16.755272 16.755272 0 0 0 5.058195 0h107.17051a10.432528 10.432528 0 0 0 4.425921-2.529097 4.742058 4.742058 0 0 0 2.845235-3.47751 8.219567 8.219567 0 0 0 0-4.42592v-185.256399a7.90343 7.90343 0 0 0 0-3.477509 8.219567 8.219567 0 0 0-2.845235-2.845235s-2.21296-2.529098-4.425921-2.529097a8.851842 8.851842 0 0 0-4.109783 0zM1001.838782 300.045815a349.647742 349.647742 0 0 0-83.46022-103.376864A438.166157 438.166157 0 0 0 632.274397 94.872773a437.217746 437.217746 0 0 0-284.523479 101.796178A347.750918 347.750918 0 0 0 264.606835 300.361952c6.955018-6.638881 13.910037-13.277762 21.181193-19.284369A534.271866 534.271866 0 0 1 632.274397 158.100213a534.271866 534.271866 0 0 1 347.750919 122.661233c6.955018 6.006607 13.910037 12.645488 21.181192 18.968232z" p-id="9149"></path></svg>