<?xml version="1.0" standalone="no"?><!DOCTYPE svg PUBLIC "-//W3C//DTD SVG 1.1//EN" "http://www.w3.org/Graphics/SVG/1.1/DTD/svg11.dtd"><svg t="1588843314433" class="icon" viewBox="0 0 1024 1024" version="1.1" xmlns="http://www.w3.org/2000/svg" p-id="7639" xmlns:xlink="http://www.w3.org/1999/xlink" width="200" height="200"><defs><style type="text/css"></style></defs><path d="M512 2.5e-05q43.335679 0 82.841598 16.9984t67.993598 45.506559 45.506559 67.993598 16.9984 82.841598l0 42.659839 170.659836 0 0 639.999985q0 53.002239-37.498879 90.501118t-90.501118 37.498879l-511.999988 0q-53.002239 0-90.501118-37.498879t-37.498879-90.501118l0-639.999985 170.659836 0 0-42.659839q0-43.335679 16.9984-82.841598t45.506559-67.993598 67.993598-45.506559 82.841598-16.9984zM810.659833 896.000003l0-554.659827-597.340146 0 0 554.659827q0 17.67424 12.4928 30.167039t30.167039 12.4928l511.999988 0q17.67424 0 30.167039-12.4928t12.4928-30.167039zM512 85.340183q-53.002239 0-90.501118 37.498879t-37.498879 90.501118l0 42.659839 255.999994 0 0-42.659839q0-53.002239-37.498879-90.501118t-90.501118-37.498879z" p-id="7640" fill="#f5f5f7"></path></svg>