<?xml version="1.0" standalone="no"?><!DOCTYPE svg PUBLIC "-//W3C//DTD SVG 1.1//EN" "http://www.w3.org/Graphics/SVG/1.1/DTD/svg11.dtd"><svg t="1588843024152" class="icon" viewBox="0 0 1024 1024" version="1.1" xmlns="http://www.w3.org/2000/svg" p-id="3742" data-spm-anchor-id="a313x.7781069.0.i10" xmlns:xlink="http://www.w3.org/1999/xlink" width="200" height="200"><defs><style type="text/css"></style></defs><path d="M932.235528 921.79934 666.16466 631.511931c59.982116-62.692854 92.89983-144.729266 92.89983-231.794204 0-89.665159-34.92851-174.020382-98.322329-237.388619-63.476707-63.391772-147.764392-98.366332-237.430574-98.366332-89.667206 0-173.999916 34.930557-237.390665 98.366332-63.391772 63.433728-98.366332 147.723459-98.366332 237.388619 0 89.667206 34.888602 173.997869 98.366332 237.388619 63.434751 63.392796 147.723459 98.366332 237.390665 98.366332 77.292364 0 150.521179-25.923416 209.889311-73.619718l266.026866 290.201451c4.41352 4.807493 10.447956 7.256264 16.523325 7.256264 5.4225 0 10.843976-1.922792 15.125489-5.858428 9.138124-8.393157 9.750061-22.514783 1.39886-31.608905L932.235528 921.79934zM132.278187 399.717727c0-160.445202 130.542148-290.987351 290.988374-290.987351 160.446225 0 290.988374 130.543172 290.988374 290.987351 0 160.445202-130.542148 290.987351-290.988374 290.987351C262.820336 690.706101 132.278187 560.163953 132.278187 399.717727z" p-id="3743" fill="#f5f5f7"></path></svg>